<svg id="visual" viewBox="0 0 540 960" width="540" height="960" xmlns="http://www.w3.org/2000/svg" xmlns:xlink="http://www.w3.org/1999/xlink" version="1.1"><g stroke-width="1" stroke-linejoin="bevel"><path d="M281 428.4L265 335.1L194 379.1Z" fill="#cdffd0" stroke="#cdffd0"></path><path d="M194 379.1L178 469.4L281 428.4Z" fill="#b0ffb6" stroke="#b0ffb6"></path><path d="M281 428.4L362 363.1L265 335.1Z" fill="#d6ffd9" stroke="#d6ffd9"></path><path d="M185 254.8L124 348.1L194 379.1Z" fill="#baffbf" stroke="#baffbf"></path><path d="M194 379.1L103 436.4L178 469.4Z" fill="#dbffdd" stroke="#dbffdd"></path><path d="M365 507.6L375 445.4L281 428.4Z" fill="#abffb2" stroke="#abffb2"></path><path d="M281 428.4L375 445.4L362 363.1Z" fill="#d6ffd9" stroke="#d6ffd9"></path><path d="M295 231.8L185 254.8L265 335.1Z" fill="#d2ffd5" stroke="#d2ffd5"></path><path d="M265 335.1L185 254.8L194 379.1Z" fill="#abffb2" stroke="#abffb2"></path><path d="M124 348.1L103 436.4L194 379.1Z" fill="#abffb2" stroke="#abffb2"></path><path d="M349 253.8L295 231.8L265 335.1Z" fill="#d6ffd9" stroke="#d6ffd9"></path><path d="M172 535.6L246 548.6L178 469.4Z" fill="#c9ffcc" stroke="#c9ffcc"></path><path d="M178 469.4L246 548.6L281 428.4Z" fill="#abffb2" stroke="#abffb2"></path><path d="M362 363.1L349 253.8L265 335.1Z" fill="#c4ffc8" stroke="#c4ffc8"></path><path d="M438 265.8L349 253.8L362 363.1Z" fill="#abffb2" stroke="#abffb2"></path><path d="M76 496.6L172 535.6L178 469.4Z" fill="#cdffd0" stroke="#cdffd0"></path><path d="M246 548.6L365 507.6L281 428.4Z" fill="#cdffd0" stroke="#cdffd0"></path><path d="M466 408.4L437 373.1L375 445.4Z" fill="#bfffc4" stroke="#bfffc4"></path><path d="M375 445.4L437 373.1L362 363.1Z" fill="#dbffdd" stroke="#dbffdd"></path><path d="M185 254.8L84 285.8L124 348.1Z" fill="#abffb2" stroke="#abffb2"></path><path d="M124 348.1L0 365.1L103 436.4Z" fill="#c9ffcc" stroke="#c9ffcc"></path><path d="M0 462.4L76 496.6L103 436.4Z" fill="#d6ffd9" stroke="#d6ffd9"></path><path d="M103 436.4L76 496.6L178 469.4Z" fill="#b5ffbb" stroke="#b5ffbb"></path><path d="M454 543.6L466 408.4L375 445.4Z" fill="#c9ffcc" stroke="#c9ffcc"></path><path d="M437 373.1L438 265.8L362 363.1Z" fill="#d2ffd5" stroke="#d2ffd5"></path><path d="M540 337.1L438 265.8L437 373.1Z" fill="#d6ffd9" stroke="#d6ffd9"></path><path d="M366 151.5L234 151.5L295 231.8Z" fill="#d6ffd9" stroke="#d6ffd9"></path><path d="M366 151.5L295 231.8L349 253.8Z" fill="#bfffc4" stroke="#bfffc4"></path><path d="M295 231.8L234 151.5L185 254.8Z" fill="#cdffd0" stroke="#cdffd0"></path><path d="M185 254.8L89 140.5L84 285.8Z" fill="#b5ffbb" stroke="#b5ffbb"></path><path d="M246 548.6L329 616.9L365 507.6Z" fill="#d6ffd9" stroke="#d6ffd9"></path><path d="M365 507.6L454 543.6L375 445.4Z" fill="#baffbf" stroke="#baffbf"></path><path d="M238 638.9L329 616.9L246 548.6Z" fill="#b0ffb6" stroke="#b0ffb6"></path><path d="M238 638.9L246 548.6L188 645.9Z" fill="#baffbf" stroke="#baffbf"></path><path d="M84 285.8L0 365.1L124 348.1Z" fill="#d2ffd5" stroke="#d2ffd5"></path><path d="M188 645.9L246 548.6L172 535.6Z" fill="#c9ffcc" stroke="#c9ffcc"></path><path d="M234 151.5L174 138.5L185 254.8Z" fill="#baffbf" stroke="#baffbf"></path><path d="M84 285.8L0 272.8L0 365.1Z" fill="#dbffdd" stroke="#dbffdd"></path><path d="M0 365.1L0 462.4L103 436.4Z" fill="#bfffc4" stroke="#bfffc4"></path><path d="M78 622.9L188 645.9L172 535.6Z" fill="#baffbf" stroke="#baffbf"></path><path d="M414 609.9L454 543.6L365 507.6Z" fill="#c9ffcc" stroke="#c9ffcc"></path><path d="M438 265.8L366 151.5L349 253.8Z" fill="#d6ffd9" stroke="#d6ffd9"></path><path d="M234 151.5L260 66.3L174 138.5Z" fill="#b5ffbb" stroke="#b5ffbb"></path><path d="M78 622.9L172 535.6L76 496.6Z" fill="#bfffc4" stroke="#bfffc4"></path><path d="M0 195.5L0 272.8L84 285.8Z" fill="#c4ffc8" stroke="#c4ffc8"></path><path d="M389 707.2L414 609.9L329 616.9Z" fill="#dbffdd" stroke="#dbffdd"></path><path d="M329 616.9L414 609.9L365 507.6Z" fill="#d2ffd5" stroke="#d2ffd5"></path><path d="M0 542.6L78 622.9L76 496.6Z" fill="#b0ffb6" stroke="#b0ffb6"></path><path d="M174 138.5L89 140.5L185 254.8Z" fill="#d2ffd5" stroke="#d2ffd5"></path><path d="M0 462.4L0 542.6L76 496.6Z" fill="#b5ffbb" stroke="#b5ffbb"></path><path d="M540 536.6L540 408.4L466 408.4Z" fill="#bfffc4" stroke="#bfffc4"></path><path d="M466 408.4L540 337.1L437 373.1Z" fill="#b5ffbb" stroke="#b5ffbb"></path><path d="M451 112.3L387 109.3L366 151.5Z" fill="#d6ffd9" stroke="#d6ffd9"></path><path d="M540 536.6L466 408.4L454 543.6Z" fill="#abffb2" stroke="#abffb2"></path><path d="M540 408.4L540 337.1L466 408.4Z" fill="#bfffc4" stroke="#bfffc4"></path><path d="M540 337.1L540 283.8L438 265.8Z" fill="#dbffdd" stroke="#dbffdd"></path><path d="M482 170.5L366 151.5L438 265.8Z" fill="#bfffc4" stroke="#bfffc4"></path><path d="M366 151.5L260 66.3L234 151.5Z" fill="#c4ffc8" stroke="#c4ffc8"></path><path d="M174 138.5L94 97.3L89 140.5Z" fill="#dbffdd" stroke="#dbffdd"></path><path d="M89 140.5L0 195.5L84 285.8Z" fill="#b0ffb6" stroke="#b0ffb6"></path><path d="M0 718.2L113 671.2L78 622.9Z" fill="#cdffd0" stroke="#cdffd0"></path><path d="M78 622.9L113 671.2L188 645.9Z" fill="#bfffc4" stroke="#bfffc4"></path><path d="M188 645.9L193 706.2L238 638.9Z" fill="#d2ffd5" stroke="#d2ffd5"></path><path d="M238 638.9L242 733.2L329 616.9Z" fill="#bfffc4" stroke="#bfffc4"></path><path d="M0 542.6L0 582.9L78 622.9Z" fill="#c9ffcc" stroke="#c9ffcc"></path><path d="M540 199.5L482 170.5L438 265.8Z" fill="#c4ffc8" stroke="#c4ffc8"></path><path d="M387 109.3L260 66.3L366 151.5Z" fill="#d6ffd9" stroke="#d6ffd9"></path><path d="M113 671.2L193 706.2L188 645.9Z" fill="#d6ffd9" stroke="#d6ffd9"></path><path d="M178 51.3L94 97.3L174 138.5Z" fill="#b0ffb6" stroke="#b0ffb6"></path><path d="M89 140.5L0 87.3L0 195.5Z" fill="#d6ffd9" stroke="#d6ffd9"></path><path d="M540 583.9L540 536.6L454 543.6Z" fill="#dbffdd" stroke="#dbffdd"></path><path d="M482 170.5L451 112.3L366 151.5Z" fill="#dbffdd" stroke="#dbffdd"></path><path d="M363 0L299 0L260 66.3Z" fill="#baffbf" stroke="#baffbf"></path><path d="M260 66.3L178 51.3L174 138.5Z" fill="#d6ffd9" stroke="#d6ffd9"></path><path d="M540 283.8L540 199.5L438 265.8Z" fill="#dbffdd" stroke="#dbffdd"></path><path d="M482 170.5L540 101.3L451 112.3Z" fill="#d6ffd9" stroke="#d6ffd9"></path><path d="M279 790.5L242 733.2L199 813.5Z" fill="#cdffd0" stroke="#cdffd0"></path><path d="M193 706.2L242 733.2L238 638.9Z" fill="#bfffc4" stroke="#bfffc4"></path><path d="M414 609.9L540 583.9L454 543.6Z" fill="#baffbf" stroke="#baffbf"></path><path d="M357 749.5L389 707.2L329 616.9Z" fill="#b5ffbb" stroke="#b5ffbb"></path><path d="M540 680.2L540 583.9L414 609.9Z" fill="#dbffdd" stroke="#dbffdd"></path><path d="M242 733.2L357 749.5L329 616.9Z" fill="#abffb2" stroke="#abffb2"></path><path d="M389 707.2L443 720.2L414 609.9Z" fill="#abffb2" stroke="#abffb2"></path><path d="M444 784.5L443 720.2L389 707.2Z" fill="#c4ffc8" stroke="#c4ffc8"></path><path d="M92 0L0 87.3L94 97.3Z" fill="#c4ffc8" stroke="#c4ffc8"></path><path d="M94 97.3L0 87.3L89 140.5Z" fill="#c9ffcc" stroke="#c9ffcc"></path><path d="M260 66.3L170 0L178 51.3Z" fill="#cdffd0" stroke="#cdffd0"></path><path d="M178 51.3L92 0L94 97.3Z" fill="#b5ffbb" stroke="#b5ffbb"></path><path d="M363 0L260 66.3L387 109.3Z" fill="#b5ffbb" stroke="#b5ffbb"></path><path d="M299 0L170 0L260 66.3Z" fill="#dbffdd" stroke="#dbffdd"></path><path d="M420 0L387 109.3L451 112.3Z" fill="#d6ffd9" stroke="#d6ffd9"></path><path d="M420 0L363 0L387 109.3Z" fill="#dbffdd" stroke="#dbffdd"></path><path d="M199 813.5L242 733.2L193 706.2Z" fill="#bfffc4" stroke="#bfffc4"></path><path d="M242 733.2L279 790.5L357 749.5Z" fill="#d2ffd5" stroke="#d2ffd5"></path><path d="M357 749.5L444 784.5L389 707.2Z" fill="#bfffc4" stroke="#bfffc4"></path><path d="M540 199.5L540 101.3L482 170.5Z" fill="#d2ffd5" stroke="#d2ffd5"></path><path d="M0 582.9L0 718.2L78 622.9Z" fill="#abffb2" stroke="#abffb2"></path><path d="M113 671.2L72 775.5L193 706.2Z" fill="#baffbf" stroke="#baffbf"></path><path d="M540 807.5L540 680.2L443 720.2Z" fill="#b0ffb6" stroke="#b0ffb6"></path><path d="M443 720.2L540 680.2L414 609.9Z" fill="#c9ffcc" stroke="#c9ffcc"></path><path d="M170 0L92 0L178 51.3Z" fill="#abffb2" stroke="#abffb2"></path><path d="M540 0L420 0L451 112.3Z" fill="#b0ffb6" stroke="#b0ffb6"></path><path d="M0 718.2L72 775.5L113 671.2Z" fill="#dbffdd" stroke="#dbffdd"></path><path d="M72 775.5L199 813.5L193 706.2Z" fill="#b5ffbb" stroke="#b5ffbb"></path><path d="M424 848.7L444 784.5L357 749.5Z" fill="#b0ffb6" stroke="#b0ffb6"></path><path d="M332 872.7L357 749.5L279 790.5Z" fill="#cdffd0" stroke="#cdffd0"></path><path d="M0 718.2L0 757.5L72 775.5Z" fill="#baffbf" stroke="#baffbf"></path><path d="M72 775.5L123 852.7L199 813.5Z" fill="#c9ffcc" stroke="#c9ffcc"></path><path d="M92 0L0 0L0 87.3Z" fill="#b0ffb6" stroke="#b0ffb6"></path><path d="M0 874.7L123 852.7L72 775.5Z" fill="#abffb2" stroke="#abffb2"></path><path d="M288 905.7L332 872.7L279 790.5Z" fill="#d2ffd5" stroke="#d2ffd5"></path><path d="M540 101.3L540 0L451 112.3Z" fill="#d6ffd9" stroke="#d6ffd9"></path><path d="M209 882.7L279 790.5L199 813.5Z" fill="#c4ffc8" stroke="#c4ffc8"></path><path d="M332 872.7L424 848.7L357 749.5Z" fill="#d2ffd5" stroke="#d2ffd5"></path><path d="M444 784.5L540 807.5L443 720.2Z" fill="#bfffc4" stroke="#bfffc4"></path><path d="M123 852.7L209 882.7L199 813.5Z" fill="#d6ffd9" stroke="#d6ffd9"></path><path d="M424 848.7L540 807.5L444 784.5Z" fill="#baffbf" stroke="#baffbf"></path><path d="M209 882.7L288 905.7L279 790.5Z" fill="#bfffc4" stroke="#bfffc4"></path><path d="M332 872.7L414 960L424 848.7Z" fill="#c4ffc8" stroke="#c4ffc8"></path><path d="M424 848.7L540 901.7L540 807.5Z" fill="#c4ffc8" stroke="#c4ffc8"></path><path d="M0 757.5L0 874.7L72 775.5Z" fill="#d6ffd9" stroke="#d6ffd9"></path><path d="M123 852.7L193 960L209 882.7Z" fill="#c4ffc8" stroke="#c4ffc8"></path><path d="M193 960L286 960L288 905.7Z" fill="#b5ffbb" stroke="#b5ffbb"></path><path d="M193 960L288 905.7L209 882.7Z" fill="#d2ffd5" stroke="#d2ffd5"></path><path d="M288 905.7L358 960L332 872.7Z" fill="#b5ffbb" stroke="#b5ffbb"></path><path d="M84 960L193 960L123 852.7Z" fill="#d2ffd5" stroke="#d2ffd5"></path><path d="M286 960L358 960L288 905.7Z" fill="#b5ffbb" stroke="#b5ffbb"></path><path d="M414 960L540 901.7L424 848.7Z" fill="#bfffc4" stroke="#bfffc4"></path><path d="M0 874.7L84 960L123 852.7Z" fill="#cdffd0" stroke="#cdffd0"></path><path d="M358 960L414 960L332 872.7Z" fill="#abffb2" stroke="#abffb2"></path><path d="M0 874.7L0 960L84 960Z" fill="#bfffc4" stroke="#bfffc4"></path><path d="M414 960L540 960L540 901.7Z" fill="#bfffc4" stroke="#bfffc4"></path></g></svg>