<svg id="visual" viewBox="0 0 600 900" width="600" height="900" xmlns="http://www.w3.org/2000/svg" xmlns:xlink="http://www.w3.org/1999/xlink" version="1.1"><g stroke-width="1" stroke-linejoin="bevel"><path d="M314 444L472 420L316 285Z" fill="#1d241c" stroke="#1d241c"></path><path d="M472 420L479 304L316 285Z" fill="#1d241c" stroke="#1d241c"></path><path d="M479 304L416 161L316 285Z" fill="#121212" stroke="#121212"></path><path d="M416 161L297 162L316 285Z" fill="#151614" stroke="#151614"></path><path d="M316 285L136 417L314 444Z" fill="#212b20" stroke="#212b20"></path><path d="M472 420L600 269L479 304Z" fill="#273725" stroke="#273725"></path><path d="M479 304L600 149L416 161Z" fill="#1f281e" stroke="#1f281e"></path><path d="M297 162L162 274L316 285Z" fill="#151614" stroke="#151614"></path><path d="M162 274L136 417L316 285Z" fill="#191d18" stroke="#191d18"></path><path d="M462 613L600 497L472 420Z" fill="#191d18" stroke="#191d18"></path><path d="M472 420L600 497L600 269Z" fill="#212b20" stroke="#212b20"></path><path d="M462 613L472 420L314 444Z" fill="#1f281e" stroke="#1f281e"></path><path d="M268 644L462 613L314 444Z" fill="#273725" stroke="#273725"></path><path d="M136 417L192 586L314 444Z" fill="#1d241c" stroke="#1d241c"></path><path d="M192 586L268 644L314 444Z" fill="#253323" stroke="#253323"></path><path d="M600 269L600 149L479 304Z" fill="#171916" stroke="#171916"></path><path d="M260 0L171 119L297 162Z" fill="#232f21" stroke="#232f21"></path><path d="M462 613L600 606L600 497Z" fill="#273725" stroke="#273725"></path><path d="M453 740L600 606L462 613Z" fill="#151614" stroke="#151614"></path><path d="M297 162L171 119L162 274Z" fill="#1b201a" stroke="#1b201a"></path><path d="M0 273L0 437L136 417Z" fill="#253323" stroke="#253323"></path><path d="M260 0L297 162L416 161Z" fill="#121212" stroke="#121212"></path><path d="M167 771L282 724L268 644Z" fill="#1b201a" stroke="#1b201a"></path><path d="M268 644L282 724L462 613Z" fill="#191d18" stroke="#191d18"></path><path d="M282 724L453 740L462 613Z" fill="#273725" stroke="#273725"></path><path d="M600 149L496 0L416 161Z" fill="#191d18" stroke="#191d18"></path><path d="M496 0L260 0L416 161Z" fill="#1b201a" stroke="#1b201a"></path><path d="M136 417L0 553L192 586Z" fill="#273725" stroke="#273725"></path><path d="M192 586L167 771L268 644Z" fill="#121212" stroke="#121212"></path><path d="M0 273L136 417L162 274Z" fill="#253323" stroke="#253323"></path><path d="M0 160L162 274L171 119Z" fill="#273725" stroke="#273725"></path><path d="M0 160L0 273L162 274Z" fill="#171916" stroke="#171916"></path><path d="M600 149L600 0L496 0Z" fill="#273725" stroke="#273725"></path><path d="M0 437L0 553L136 417Z" fill="#151614" stroke="#151614"></path><path d="M260 0L151 0L171 119Z" fill="#151614" stroke="#151614"></path><path d="M0 0L0 160L171 119Z" fill="#1f281e" stroke="#1f281e"></path><path d="M0 719L167 771L192 586Z" fill="#232f21" stroke="#232f21"></path><path d="M327 900L430 900L453 740Z" fill="#1f281e" stroke="#1f281e"></path><path d="M453 740L600 774L600 606Z" fill="#171916" stroke="#171916"></path><path d="M430 900L600 774L453 740Z" fill="#273725" stroke="#273725"></path><path d="M0 553L0 719L192 586Z" fill="#1d241c" stroke="#1d241c"></path><path d="M151 0L0 0L171 119Z" fill="#1b201a" stroke="#1b201a"></path><path d="M327 900L282 724L167 771Z" fill="#1d241c" stroke="#1d241c"></path><path d="M327 900L453 740L282 724Z" fill="#171916" stroke="#171916"></path><path d="M103 900L327 900L167 771Z" fill="#212b20" stroke="#212b20"></path><path d="M430 900L600 900L600 774Z" fill="#171916" stroke="#171916"></path><path d="M0 719L103 900L167 771Z" fill="#1b201a" stroke="#1b201a"></path><path d="M0 719L0 900L103 900Z" fill="#121212" stroke="#121212"></path></g></svg>